<svg width="548" height="279" viewBox="0 0 548 279" version="1.1" xmlns="http://www.w3.org/2000/svg" xmlns:xlink="http://www.w3.org/1999/xlink">
<title>white logo</title>
<desc>Created using Figma</desc>
<g id="Canvas" transform="translate(-2288 659)">
<g id="white logo">
<g id="stori">
<use xlink:href="#path0_fill" transform="translate(2490 -659)" fill="#FFFFFF"/>
</g>
<g id="Subtract">
<use xlink:href="#path1_fill" transform="translate(2634 -554)" fill="#FFFFFF"/>
</g>
<g id="gif">
<use xlink:href="#path2_fill" transform="translate(2288 -652)" fill="#FFFFFF"/>
</g>
</g>
</g>
<defs>
<path id="path0_fill" d="M 20.2 187.4C 20.3333 188.467 20.4 189.467 20.4 190.4C 20.4 191.333 20.4 192.2 20.4 193C 20.4 195 19.8667 196.667 18.8 198C 17.8667 199.333 16.4 200 14.4 200C 13.8667 200 13.2 199.933 12.4 199.8C 11.7333 199.667 11 199.4 10.2 199C 9.53333 198.6 8.93333 198.067 8.4 197.4C 8 196.733 7.8 195.867 7.8 194.8C 7.8 194.133 7.86667 192.533 8 190C 8.13333 187.333 8.2 185.067 8.2 183.2C 8.2 180.533 8.06667 177.533 7.8 174.2C 7.53333 170.867 7.4 167.733 7.4 164.8C 7.4 162.667 7.66667 161 8.2 159.8C 8.73333 158.467 10.2667 157.8 12.8 157.8C 15.4667 157.8 17.2 158.533 18 160C 18.9333 161.467 19.5333 163.4 19.8 165.8C 20.0667 167.667 20.2 169.2 20.2 170.4C 20.3333 171.467 20.7333 172.667 21.4 174C 22.0667 175.467 23.0667 177 24.4 178.6C 25.7333 180.2 27.4667 181.667 29.6 183C 31.7333 184.2 34.1333 185.267 36.8 186.2C 39.6 187 42.7333 187.4 46.2 187.4C 48.3333 187.4 50.5333 187.2 52.8 186.8C 55.2 186.4 57.4 185.733 59.4 184.8C 61.4 183.867 63 182.6 64.2 181C 65.5333 179.4 66.2 177.4 66.2 175C 66.2 170.467 63.8667 167.2 59.2 165.2C 54.6667 163.067 48.4667 161 40.6 159C 37.1333 158.2 33.6 157.2 30 156C 26.4 154.8 23.0667 153.2 20 151.2C 16.9333 149.067 14.4 146.333 12.4 143C 10.5333 139.533 9.6 135.2 9.6 130C 9.6 125.067 10.4667 120.867 12.2 117.4C 14.0667 113.933 16.4667 111.133 19.4 109C 22.3333 106.733 25.6667 105.133 29.4 104.2C 33.2667 103.133 37.2 102.6 41.2 102.6C 45.0667 102.6 48.4 103 51.2 103.8C 54.1333 104.6 56.6 105.667 58.6 107C 60.6 108.333 62.2 109.8 63.4 111.4C 64.6 112.867 65.6 114.267 66.4 115.6C 66.2667 113.867 66.1333 112.067 66 110.2C 66 108.333 66 107.067 66 106.4C 66 103.333 66.7333 101.333 68.2 100.4C 69.8 99.4667 71.2 99 72.4 99C 73.8667 99 75.2667 99.6 76.6 100.8C 78.0667 101.867 78.8 104.133 78.8 107.6C 78.8 110.4 78.7333 113.4 78.6 116.6C 78.6 119.667 78.5333 122.6 78.4 125.4C 78.2667 128.067 78.1333 130.467 78 132.6C 77.8667 134.733 77.8 136.2 77.8 137C 77.6667 138.867 76.8667 140.2 75.4 141C 73.9333 141.8 72.6 142.2 71.4 142.2C 69.6667 142.2 68.4 141.6 67.6 140.4C 66.8 139.2 66.2667 138.133 66 137.2C 66 137.067 65.9333 136.6 65.8 135.8C 65.6667 134.867 65.4667 133.867 65.2 132.8C 65.0667 131.6 64.8667 130.467 64.6 129.4C 64.3333 128.333 64 127.467 63.6 126.8C 62 123.733 59.5333 121 56.2 118.6C 52.8667 116.067 48.0667 114.8 41.8 114.8C 35.5333 114.8 30.8 116.2 27.6 119C 24.4 121.667 22.8 125.2 22.8 129.6C 22.8 132.267 23.4 134.533 24.6 136.4C 25.8 138.267 27.4 139.867 29.4 141.2C 31.4 142.533 33.7333 143.667 36.4 144.6C 39.0667 145.4 41.9333 146.2 45 147C 49.9333 148.333 54.5333 149.667 58.8 151C 63.0667 152.333 66.7333 154 69.8 156C 72.8667 157.867 75.2667 160.267 77 163.2C 78.8667 166.133 79.8 169.8 79.8 174.2C 79.8 179.4 78.6667 183.6 76.4 186.8C 74.1333 190 71.3333 192.467 68 194.2C 64.8 196.067 61.2667 197.267 57.4 197.8C 53.5333 198.467 50 198.8 46.8 198.8C 44.4 198.8 41.8667 198.6 39.2 198.2C 36.5333 197.933 34 197.333 31.6 196.4C 29.2 195.6 27 194.467 25 193C 23 191.533 21.4 189.667 20.2 187.4ZM 96.3141 113.2C 93.7807 113.2 90.9141 113.267 87.7141 113.4C 84.5141 113.533 81.7141 113.6 79.3141 113.6C 78.5141 113.6 77.3807 113.2 75.9141 112.4C 74.3141 111.6 73.5141 110 73.5141 107.6C 73.5141 105.733 74.1807 104.4 75.5141 103.6C 76.8474 102.667 78.4474 102.067 80.3141 101.8L 90.5141 100.8C 93.1807 100.533 94.7807 99.9333 95.3141 99C 95.8474 97.9333 96.1141 96.2667 96.1141 94C 96.1141 91.2 96.1141 88.2 96.1141 85C 96.2474 81.6667 96.6474 78.6667 97.3141 76C 97.9807 73.3333 99.0474 71.7333 100.514 71.2C 101.981 70.6667 103.047 70.4 103.714 70.4C 105.447 70.4 106.981 70.8667 108.314 71.8C 109.647 72.6 110.314 75 110.314 79L 110.314 100.4C 111.247 100.4 113.047 100.4 115.714 100.4C 118.381 100.267 121.181 100.133 124.114 100C 127.181 99.8667 129.981 99.8 132.514 99.8C 135.047 99.6667 136.714 99.6 137.514 99.6C 139.114 99.6 140.714 100.067 142.314 101C 143.914 101.8 144.714 103.267 144.714 105.4C 144.714 107.267 144.114 108.667 142.914 109.6C 141.714 110.4 140.514 110.933 139.314 111.2C 134.514 111.733 129.581 112.067 124.514 112.2C 119.581 112.333 114.847 112.533 110.314 112.8L 110.314 163.6C 110.314 165.733 110.447 168 110.714 170.4C 110.981 172.8 111.447 175.067 112.114 177.2C 112.914 179.2 113.981 180.867 115.314 182.2C 116.781 183.533 118.714 184.2 121.114 184.2C 123.247 184.2 124.981 183.867 126.314 183.2C 127.647 182.4 128.781 181.467 129.714 180.4C 130.647 179.333 131.381 178.2 131.914 177C 132.447 175.8 132.914 174.667 133.314 173.6C 133.714 172.533 134.047 171.467 134.314 170.4C 134.714 169.333 135.181 168.4 135.714 167.6C 136.247 166.667 136.981 165.933 137.914 165.4C 138.847 164.867 140.114 164.6 141.714 164.6C 142.781 164.6 143.647 164.867 144.314 165.4C 144.981 165.933 145.447 166.533 145.714 167.2C 146.114 167.867 146.381 168.533 146.514 169.2C 146.647 169.867 146.714 170.333 146.714 170.6C 146.714 172.467 146.181 174.867 145.114 177.8C 144.047 180.733 142.314 183.6 139.914 186.4C 137.647 189.067 134.714 191.4 131.114 193.4C 127.514 195.267 123.247 196.2 118.314 196.2C 110.714 196.2 105.114 193.467 101.514 188C 100.181 186 99.1141 183.867 98.3141 181.6C 97.6474 179.2 97.1141 176.8 96.7141 174.4C 96.3141 171.867 96.0474 169.467 95.9141 167.2C 95.9141 164.933 95.9141 162.867 95.9141 161L 96.3141 113.2ZM 226.789 147.4C 226.789 155.533 225.322 162.667 222.389 168.8C 219.456 174.933 215.656 180.067 210.989 184.2C 206.456 188.2 201.322 191.2 195.589 193.2C 189.856 195.2 184.189 196.2 178.589 196.2C 171.789 196.2 165.589 195.067 159.989 192.8C 154.389 190.4 149.522 187.067 145.389 182.8C 141.389 178.533 138.256 173.467 135.989 167.6C 133.722 161.6 132.589 155.067 132.589 148C 132.589 141.067 133.722 134.667 135.989 128.8C 138.256 122.8 141.456 117.667 145.589 113.4C 149.856 109.133 154.922 105.8 160.789 103.4C 166.789 100.867 173.522 99.6 180.989 99.6C 188.456 99.6 194.989 100.933 200.589 103.6C 206.322 106.133 211.122 109.6 214.989 114C 218.856 118.4 221.789 123.467 223.789 129.2C 225.789 134.933 226.789 141 226.789 147.4ZM 180.789 111.6C 176.389 111.6 172.189 112.4 168.189 114C 164.189 115.6 160.656 117.933 157.589 121C 154.522 124.067 152.056 127.867 150.189 132.4C 148.456 136.933 147.589 142.067 147.589 147.8C 147.589 153.933 148.522 159.267 150.389 163.8C 152.389 168.333 154.922 172.133 157.989 175.2C 161.056 178.133 164.456 180.333 168.189 181.8C 171.922 183.267 175.522 184 178.989 184C 182.456 184 186.122 183.267 189.989 181.8C 193.856 180.333 197.456 178.133 200.789 175.2C 204.122 172.133 206.856 168.267 208.989 163.6C 211.122 158.933 212.189 153.4 212.189 147C 212.189 141.8 211.389 137.067 209.789 132.8C 208.322 128.4 206.189 124.667 203.389 121.6C 200.722 118.4 197.456 115.933 193.589 114.2C 189.722 112.467 185.456 111.6 180.789 111.6ZM 291.448 126.8C 291.448 129.067 291.182 131.267 290.648 133.4C 290.248 135.533 289.515 137.467 288.448 139.2C 287.382 140.8 285.982 142.133 284.248 143.2C 282.515 144.267 280.315 144.8 277.648 144.8C 275.382 144.8 273.248 144.2 271.248 143C 269.382 141.667 268.448 139.667 268.448 137C 268.448 135 268.848 133.6 269.648 132.8C 270.582 131.867 271.582 131.2 272.648 130.8C 273.848 130.267 274.848 129.733 275.648 129.2C 276.582 128.667 277.048 127.667 277.048 126.2C 277.048 123.667 276.182 121.933 274.448 121C 272.715 119.933 270.515 119.4 267.848 119.4C 265.448 119.4 262.848 119.933 260.048 121C 257.248 122.067 254.648 123.867 252.248 126.4C 249.848 128.933 247.848 132.267 246.248 136.4C 244.648 140.4 243.848 145.4 243.848 151.4L 243.848 181.8L 254.648 181.8C 261.582 181.8 266.448 182.4 269.248 183.6C 272.048 184.667 273.448 186.333 273.448 188.6C 273.448 192.2 271.448 194 267.448 194C 265.448 194 263.248 194 260.848 194C 258.448 193.867 255.982 193.8 253.448 193.8C 251.048 193.667 248.648 193.6 246.248 193.6C 243.848 193.467 241.715 193.4 239.848 193.4C 237.848 193.4 236.115 193.467 234.648 193.6C 233.182 193.6 231.715 193.667 230.248 193.8C 228.915 193.8 227.515 193.867 226.048 194C 224.715 194 223.115 194 221.248 194C 219.115 194 217.515 193.467 216.448 192.4C 215.382 191.2 214.848 189.867 214.848 188.4C 214.848 186.933 215.315 185.533 216.248 184.2C 217.315 182.867 218.982 182.067 221.248 181.8C 224.448 181.4 226.515 180.667 227.448 179.6C 228.515 178.4 229.115 176.867 229.248 175C 229.382 173.267 229.448 171.067 229.448 168.4C 229.582 165.6 229.715 162 229.848 157.6C 229.982 153.067 230.048 147.533 230.048 141C 230.182 134.467 230.248 126.4 230.248 116.8C 230.248 114.933 229.248 114 227.248 114L 217.448 114C 214.115 114 211.582 113.533 209.848 112.6C 208.248 111.533 207.448 110.467 207.448 109.4C 207.448 108.2 208.448 107.267 210.448 106.6C 212.582 105.8 215.115 105.2 218.048 104.8C 220.982 104.4 224.115 104.133 227.448 104C 230.782 103.867 233.648 103.8 236.048 103.8C 239.515 103.8 241.848 104.2 243.048 105C 244.248 105.8 244.848 107.933 244.848 111.4L 244.848 121.2C 248.048 116.533 251.715 113.067 255.848 110.8C 259.982 108.4 264.382 107.2 269.048 107.2C 272.382 107.2 275.382 107.8 278.048 109C 280.848 110.067 283.248 111.533 285.248 113.4C 287.248 115.133 288.782 117.2 289.848 119.6C 290.915 121.867 291.448 124.267 291.448 126.8ZM 323.791 182.4L 335.191 182.4C 338.124 182.4 340.457 182.733 342.191 183.4C 343.924 184.067 344.791 185.733 344.791 188.4C 344.791 190.133 344.191 191.533 342.991 192.6C 341.791 193.533 340.391 194 338.791 194L 302.991 194C 301.391 194 299.724 194 297.991 194C 296.391 193.867 294.924 193.667 293.591 193.4C 292.391 193 291.324 192.467 290.391 191.8C 289.591 191 289.191 189.933 289.191 188.6C 289.191 187.4 289.457 186.467 289.991 185.8C 290.524 185.133 291.324 184.667 292.391 184.4C 293.457 184 294.657 183.733 295.991 183.6C 297.457 183.333 299.124 183.067 300.991 182.8C 303.924 182.4 305.924 182 306.991 181.6C 308.057 181.067 308.724 180.067 308.991 178.6C 309.391 174.333 309.591 169.733 309.591 164.8C 309.724 159.733 309.791 155.267 309.791 151.4C 309.791 146.333 309.724 141.467 309.591 136.8C 309.457 132.133 309.257 127.267 308.991 122.2C 308.857 120.6 308.591 119.333 308.191 118.4C 307.791 117.333 307.057 116.8 305.991 116.8C 305.457 116.8 304.391 116.867 302.791 117C 301.324 117.133 299.724 117.267 297.991 117.4C 296.391 117.4 294.857 117.467 293.391 117.6C 291.924 117.733 290.924 117.8 290.391 117.8C 289.324 117.8 288.124 117.467 286.791 116.8C 285.457 116.133 284.791 115.4 284.791 114.6C 284.791 113 285.124 111.8 285.791 111C 286.457 110.2 287.391 109.6 288.591 109.2C 289.924 108.8 291.457 108.533 293.191 108.4C 295.057 108.267 297.124 108.067 299.391 107.8C 301.124 107.667 302.991 107.533 304.991 107.4C 306.991 107.267 308.924 107.133 310.791 107C 312.791 106.867 314.591 106.8 316.191 106.8C 317.791 106.8 319.124 106.8 320.191 106.8C 321.791 106.8 322.791 107.467 323.191 108.8C 323.591 110 323.791 111.667 323.791 113.8L 323.791 182.4ZM 303.591 78C 303.591 77.0667 303.791 75.9333 304.191 74.6C 304.724 73.1333 305.391 71.8 306.191 70.6C 307.124 69.4 308.324 68.4 309.791 67.6C 311.257 66.6667 312.991 66.2 314.991 66.2C 317.657 66.2 319.991 67.2 321.991 69.2C 323.991 71.0667 324.991 73.7333 324.991 77.2C 324.991 82 323.657 85.3333 320.991 87.2C 318.457 89.0667 315.991 90 313.591 90C 310.791 90 308.391 88.8667 306.391 86.6C 304.524 84.3333 303.591 81.4667 303.591 78Z"/>
<path id="path1_fill" fill-rule="evenodd" d="M 39.5 84C 61.3152 84 79 65.196 79 42C 79 18.804 61.3152 0 39.5 0C 17.6848 0 0 18.804 0 42C 0 65.196 17.6848 84 39.5 84ZM 17.75 71.7798L 65 44.5L 17.75 17.2202L 17.75 71.7798Z"/>
<path id="path2_fill" d="M 48 102C 53.4667 102 58.5333 102.733 63.2 104.2C 64.8 102.067 66.5333 100 68.4 98C 70.4 96 72.4667 94.2667 74.6 92.8C 76.7333 91.3333 78.8667 90.2 81 89.4C 83.1333 88.4667 85.1333 88 87 88C 88.7333 88 90.4 88.5333 92 89.6C 93.7333 90.5333 94.6 92.1333 94.6 94.4C 94.6 95.8667 94.1333 97.1333 93.2 98.2C 92.4 99.2667 91.2667 99.9333 89.8 100.2C 86.8667 100.467 83.8 101.2 80.6 102.4C 77.4 103.6 74.4667 105.533 71.8 108.2C 76.4667 111.133 79.9333 114.867 82.2 119.4C 84.4667 123.8 85.6 128.6 85.6 133.8C 85.6 138.467 84.7333 142.8 83 146.8C 81.2667 150.8 78.6667 154.267 75.2 157.2C 71.8667 160.133 67.7333 162.467 62.8 164.2C 58 165.8 52.4667 166.6 46.2 166.6C 44.3333 166.6 42.6 166.533 41 166.4C 39.5333 166.267 37.9333 165.933 36.2 165.4C 33.2667 166.467 30.8667 167.733 29 169.2C 27.1333 170.667 26.2 172.6 26.2 175C 26.2 177.667 28.7333 179.6 33.8 180.8C 38.8667 181.867 46.6 182.467 57 182.6C 62.7333 182.6 68.7333 182.867 75 183.4C 81.2667 183.933 87 185.2 92.2 187.2C 97.5333 189.067 101.933 191.933 105.4 195.8C 108.867 199.8 110.6 205.267 110.6 212.2C 110.6 217 109.2 221.333 106.4 225.2C 103.733 229.2 99.9333 232.533 95 235.2C 90.0667 238 84.1333 240.133 77.2 241.6C 70.4 243.2 62.8667 244 54.6 244C 48.0667 244 41.8667 243.4 36 242.2C 30.1333 241 25 239.133 20.6 236.6C 16.2 234.2 12.6667 231.133 10 227.4C 7.46667 223.667 6.2 219.333 6.2 214.4C 6.2 202.933 13.9333 195.667 29.4 192.6C 24.2 191.667 19.9333 190 16.6 187.6C 13.4 185.2 11.8 181.4 11.8 176.2C 11.8 172.333 12.8 169.333 14.8 167.2C 16.9333 164.933 20.0667 162.867 24.2 161C 19.9333 158.2 16.7333 154.467 14.6 149.8C 12.6 145.133 11.6 140.267 11.6 135.2C 11.6 130.4 12.4667 126 14.2 122C 15.9333 118 18.3333 114.533 21.4 111.6C 24.6 108.533 28.4 106.2 32.8 104.6C 37.3333 102.867 42.4 102 48 102ZM 59.8 194.2C 55.5333 194.2 51.1333 194.6 46.6 195.4C 42.0667 196.2 37.8667 197.467 34 199.2C 30.1333 200.933 26.9333 203.067 24.4 205.6C 22 208.267 20.8 211.467 20.8 215.2C 20.8 218 21.8667 220.4 24 222.4C 26.2667 224.533 29.2 226.267 32.8 227.6C 36.4 229.067 40.4 230.133 44.8 230.8C 49.2 231.467 53.6 231.8 58 231.8C 70.4 231.8 79.8 230.067 86.2 226.6C 92.7333 223.133 96 218.867 96 213.8C 96 210.6 95.2 207.867 93.6 205.6C 92 203.333 89.9333 201.467 87.4 200C 85 198.667 82.3333 197.6 79.4 196.8C 76.4667 196 73.6667 195.4 71 195C 68.3333 194.6 65.9333 194.333 63.8 194.2C 61.8 194.2 60.4667 194.2 59.8 194.2ZM 49.4 114C 42.2 114 36.5333 116 32.4 120C 28.2667 124 26.2 129.2 26.2 135.6C 26.2 140.8 28.0667 145.267 31.8 149C 35.6667 152.733 41.0667 154.6 48 154.6C 55.2 154.6 60.8 152.733 64.8 149C 68.9333 145.133 71 140.067 71 133.8C 71 127.8 69.0667 123 65.2 119.4C 61.4667 115.8 56.2 114 49.4 114ZM 138.423 182.4L 149.823 182.4C 152.757 182.4 155.09 182.733 156.823 183.4C 158.557 184.067 159.423 185.733 159.423 188.4C 159.423 190.133 158.823 191.533 157.623 192.6C 156.423 193.533 155.023 194 153.423 194L 117.623 194C 116.023 194 114.357 194 112.623 194C 111.023 193.867 109.557 193.667 108.223 193.4C 107.023 193 105.957 192.467 105.023 191.8C 104.223 191 103.823 189.933 103.823 188.6C 103.823 187.4 104.09 186.467 104.623 185.8C 105.157 185.133 105.957 184.667 107.023 184.4C 108.09 184 109.29 183.733 110.623 183.6C 112.09 183.333 113.757 183.067 115.623 182.8C 118.557 182.4 120.557 182 121.623 181.6C 122.69 181.067 123.357 180.067 123.623 178.6C 124.023 174.333 124.223 169.733 124.223 164.8C 124.357 159.733 124.423 155.267 124.423 151.4C 124.423 146.333 124.357 141.467 124.223 136.8C 124.09 132.133 123.89 127.267 123.623 122.2C 123.49 120.6 123.223 119.333 122.823 118.4C 122.423 117.333 121.69 116.8 120.623 116.8C 120.09 116.8 119.023 116.867 117.423 117C 115.957 117.133 114.357 117.267 112.623 117.4C 111.023 117.4 109.49 117.467 108.023 117.6C 106.557 117.733 105.557 117.8 105.023 117.8C 103.957 117.8 102.757 117.467 101.423 116.8C 100.09 116.133 99.4234 115.4 99.4234 114.6C 99.4234 113 99.7568 111.8 100.423 111C 101.09 110.2 102.023 109.6 103.223 109.2C 104.557 108.8 106.09 108.533 107.823 108.4C 109.69 108.267 111.757 108.067 114.023 107.8C 115.757 107.667 117.623 107.533 119.623 107.4C 121.623 107.267 123.557 107.133 125.423 107C 127.423 106.867 129.223 106.8 130.823 106.8C 132.423 106.8 133.757 106.8 134.823 106.8C 136.423 106.8 137.423 107.467 137.823 108.8C 138.223 110 138.423 111.667 138.423 113.8L 138.423 182.4ZM 118.223 78C 118.223 77.0667 118.423 75.9333 118.823 74.6C 119.357 73.1333 120.023 71.8 120.823 70.6C 121.757 69.4 122.957 68.4 124.423 67.6C 125.89 66.6667 127.623 66.2 129.623 66.2C 132.29 66.2 134.623 67.2 136.623 69.2C 138.623 71.0667 139.623 73.7333 139.623 77.2C 139.623 82 138.29 85.3333 135.623 87.2C 133.09 89.0667 130.623 90 128.223 90C 125.423 90 123.023 88.8667 121.023 86.6C 119.157 84.3333 118.223 81.4667 118.223 78ZM 176.222 179C 177.022 169.667 177.422 160.2 177.422 150.6C 177.422 144.2 177.355 137.8 177.222 131.4C 177.089 125 177.022 118.6 177.022 112.2C 177.022 111.8 176.822 111.533 176.422 111.4C 176.155 111.133 175.489 111 174.422 111L 167.022 111C 164.755 111 162.889 110.6 161.422 109.8C 159.955 108.867 159.222 107.267 159.222 105C 159.222 102.333 160.022 100.733 161.622 100.2C 163.222 99.6667 165.222 99.4 167.622 99.4L 174.422 99.4C 175.489 99.4 176.155 99.0667 176.422 98.4C 176.689 97.6 176.822 96.7333 176.822 95.8C 176.955 92.3333 177.155 88.2667 177.422 83.6C 177.822 78.9333 178.489 74.1333 179.422 69.2C 180.489 64.2667 181.955 59.4 183.822 54.6C 185.822 49.8 188.489 45.5333 191.822 41.8C 195.155 37.9333 199.222 34.8667 204.022 32.6C 208.955 30.2 214.955 29 222.022 29C 226.955 29 231.089 29.8 234.422 31.4C 237.755 32.8667 240.355 34.7333 242.222 37C 244.089 39.1333 245.422 41.4667 246.222 44C 247.022 46.4 247.422 48.5333 247.422 50.4C 247.422 56 246.222 59.9333 243.822 62.2C 241.422 64.4667 239.022 65.6 236.622 65.6C 233.422 65.6 231.022 64.6667 229.422 62.8C 227.822 60.9333 227.022 58.9333 227.022 56.8C 227.022 55.7333 227.222 54.5333 227.622 53.2C 228.155 51.8667 228.955 50.7333 230.022 49.8C 230.822 49 231.489 48.3333 232.022 47.8C 232.689 47.2667 233.022 46.5333 233.022 45.6C 233.022 44.8 232.022 43.7333 230.022 42.4C 228.022 40.9333 225.355 40.2 222.022 40.2C 216.955 40.2 212.622 41.2 209.022 43.2C 205.555 45.0667 202.689 47.6 200.422 50.8C 198.155 54 196.422 57.6667 195.222 61.8C 194.022 65.8 193.089 69.9333 192.422 74.2C 191.889 78.3333 191.555 82.4667 191.422 86.6C 191.422 90.6 191.422 94.1333 191.422 97.2C 191.422 98.6667 191.955 99.4 193.022 99.4L 208.622 99.4C 209.955 99.4 211.489 99.7333 213.222 100.4C 215.089 100.933 216.022 102.467 216.022 105C 216.022 106.6 215.755 107.867 215.222 108.8C 214.689 109.6 214.022 110.2 213.222 110.6C 212.422 111 211.555 111.267 210.622 111.4C 209.822 111.4 209.022 111.4 208.222 111.4C 207.555 111.4 206.622 111.4 205.422 111.4C 204.222 111.267 202.955 111.2 201.622 111.2C 200.289 111.2 198.955 111.2 197.622 111.2C 196.422 111.067 195.555 111 195.022 111C 193.422 111 192.422 111.2 192.022 111.6C 191.622 112 191.422 112.533 191.422 113.2L 191.422 182L 213.222 182C 215.222 182 217.022 182.333 218.622 183C 220.222 183.533 221.022 185.2 221.022 188C 221.022 190.267 220.155 191.8 218.422 192.6C 216.689 193.4 214.089 193.8 210.622 193.8C 209.422 193.8 207.889 193.8 206.022 193.8C 204.155 193.667 202.155 193.6 200.022 193.6C 198.022 193.6 195.955 193.6 193.822 193.6C 191.822 193.467 190.089 193.4 188.622 193.4C 186.755 193.4 184.755 193.467 182.622 193.6C 180.622 193.6 178.622 193.667 176.622 193.8C 174.622 193.8 172.822 193.867 171.222 194C 169.755 194 168.622 194 167.822 194C 166.889 194 165.889 194 164.822 194C 163.889 193.867 162.955 193.667 162.022 193.4C 161.222 193 160.489 192.467 159.822 191.8C 159.289 191.133 159.022 190.133 159.022 188.8C 159.022 187.6 159.289 186.667 159.822 186C 160.489 185.333 161.222 184.8 162.022 184.4C 162.955 184 163.889 183.733 164.822 183.6C 165.889 183.333 166.755 183.2 167.422 183.2C 170.622 182.933 172.822 182.533 174.022 182C 175.355 181.467 176.089 180.467 176.222 179Z"/>
</defs>
</svg>
